<?xml version="1.0" ?><svg fill="#ffffff" height="800px" width="800px" id="a" viewBox="0 0 750 750" xmlns="http://www.w3.org/2000/svg"><path d="M561.15,497.6c.03-22.21-1.95-44.38-2.79-66.57-2.82-50.97-1.22-86.85-29.66-132.68-7.02-11.09-15.73-20.98-24.32-30.87-12.59-14.77-25.27-30.09-41.99-40.37-5.68-3.49-11.63-6.64-17.84-9.11,.3-.81,.62-1.62,.9-2.44,2.73-7.8,4.16-18.24-2.63-24.36-5.1-3.99-12.41-1.81-18.44-2.25-18.94,1.1-37.85,.67-56.74-.93-18.25-.36-36.92-3.16-54.98,.34-15.09,3.19-17.86,18.31-10.53,30.26,.53,1.09,1.08,2.18,1.62,3.27-15.35,3.92-33.98,13.06-43.57,19.27-12.03,7.33-21.34,17.97-31.15,27.9-20.37,18.36-30.08,39.83-33.97,66.72-4.02,20.52-4.34,41.4-5.39,62.21-2.28,25.91,.59,54.13,4.08,80.11,1.09,9.12,2.37,18.22,3.45,27.34,.57,5.16,.81,10.73,4,15.08,4.39,6.53,12.91,6.75,20.01,6.36,10.64,.45,21.27,.3,31.91,.32,4.9,.14,9.8,.09,14.69-.05-.68,5.59-1.66,11.19-.88,16.71,2.17,9.85,13.35,11.69,21.77,13.19,19.08,2.96,38.34,5.41,57.64,6.14,31.79,1.22,63.39-4.45,95.15-3.47,11.43,.5,22.84,1.69,34.3,1.68,4.26,.52,8.48-1.09,11.23-4.41,5.26-6.68,6-15.13,5.79-23.52,12.73-.03,25.47-1.35,38.21-.61,9.36,.58,21.2,2.23,26.98-7.02,4.84-8.31,2.26-19,3.16-28.27ZM361.57,206.12c20.64-.68,41.08,3.37,61.66,4.24-16.47,23.93-33.44,47.51-48.31,72.5-.9-1.52-1.91-2.98-2.92-4.38-3.95-5.47-8.49-10.51-13.05-15.46-14.85-15.94-29.52-32.46-39.01-52.27,13.62-3.2,27.71-3.72,41.62-4.63Zm-115.22,296.58c-9.32,.65-18.92,1.36-28.11-.66-1.2-28.29-4.93-53.77-10.36-81.99-6.67-39.85-5.46-84.33,19.3-118.08,14.44-16.74,30.11-33.38,50.28-43.1,10.59-4.93,21.57-9.11,32.63-12.86,1.89-.75,4.04-.99,6.16-1.26,2.63,4.24,5.42,8.38,8.46,12.36,11.21,15.56,25.64,28.45,37.15,43.73-11.19,13-22.4,25.97-31.79,40.38-13.32,18.84-26.34,37.92-37.36,58.22-2.56,4.39-4.83,8.48-7.31,12.97-1.15-21.48-3.9-42.88-9.08-64.11-1.16-5.04-2.62-10-3.8-15.03-.59-4.83-3.6-10.63-9.19-10.63-11.46,1.28-9.8,15.86-7.7,24.06,2.22,10.28,4.63,20.51,6.39,30.88,3.62,16.99,5.08,34.16,5.67,51.4-.31,.28-.61,.59-.89,.93-3.97,4.69-3.99,11.71-.9,16.82,.55,1,1.29,1.82,2.14,2.5,.03,6.43,.02,12.86,.01,19.29,.02,10.95,.25,21.91,.34,32.86-7.38-.01-14.72,.7-22.06,1.33Zm174.42,33.03c-25.34,.17-50.59-2.93-75.94-2.6-9.9,.02-19.8,.25-29.67,1-11.53,.83-23.16,3.14-34.72,1.68,2.4-27.74,4.82-55.61,5.46-83.43,3.04,.12,6.09,.17,9.13,.22,17.21-.04,34.43-.1,51.64-.39-6.48,12.64-12.43,27.58-13.87,33.82-1.49,6.29,1.46,15.58,8.92,15.81,6.37-.18,8.38-6.81,10.32-11.77,4.68-10.25,9.28-20.58,14.67-30.48,10.46,14.94,23.3,27.93,34.54,42.25,11.16,10.43,19.77-9.45,11.84-17.92-5.77-7.22-11.7-14.3-17.8-21.24-3.14-3.76-6.14-7.64-8.99-11.63,19.73-.87,39.43-2.25,59.08-4.47,3.78-.38,7.54-.86,11.33-1.05,1.14-.09,2.14-.43,3-.94-.12,3.63-.22,7.26-.27,10.89-.62,16.23,3.12,32.09,6.08,47.94,1.65,9.99,2.31,20.1,3.19,30.19-16,.54-31.94,2.3-47.97,2.11Zm117.14-94.26c-2.28,22.43,1.17,44.77,1.53,67.2-16.42,.83-32.77-1.6-49.18-1.96-2.66-13.68-7.42-26.91-12.11-40.04-3.66-12.88-4.69-26.24-5.6-39.54-.46-15.51-1.12-31.15,1.69-46.49,1.67-8.89,3.76-17.69,6.18-26.41,2.38-7.37,6.19-18.47-2.91-22.82-9.45-2.75-10.96,9.64-12.55,16.19-3.83,18.91-4.74,38.26-4.29,57.5,.13,7.67-.07,15.33-.34,22.99-.99-.73-2.19-1.2-3.6-1.3-18.84,1.52-37.72,.55-56.58,.19-33.82,1.66-67.67,.26-101.51-.1,5.03-6.51,10.29-12.83,15.36-19.31,16.67-20.12,32.72-40.78,44.85-64.03,13.78-22.65,28.89-44.58,45.65-65.13,10.05-12.38,20.62-24.83,29.1-38.46,.92,.36,1.83,.73,2.69,1.15,8.62,3.72,16.8,8.34,24.42,13.82,26.45,21.27,48.63,47.94,65.82,77.16,22.94,38.94,14.45,67.61,11.39,109.38Z"/></svg>